
<svg viewBox="-464,-300,928,600" width="928" height="600" style="max-width: 100%; height: auto; font: 12px sans-serif;" xmlns="http://www.w3.org/2000/svg" xmlns:xlink="http://www.w3.org/1999/xlink"><defs><marker id="arrow-licensing" viewBox="0 -5 10 10" refX="15" refY="-0.5" markerWidth="6" markerHeight="6" orient="auto"><path fill="#1f77b4" d="M0,-5L10,0L0,5"/></marker><marker id="arrow-suit" viewBox="0 -5 10 10" refX="15" refY="-0.5" markerWidth="6" markerHeight="6" orient="auto"><path fill="#ff7f0e" d="M0,-5L10,0L0,5"/></marker><marker id="arrow-resolved" viewBox="0 -5 10 10" refX="15" refY="-0.5" markerWidth="6" markerHeight="6" orient="auto"><path fill="#2ca02c" d="M0,-5L10,0L0,5"/></marker></defs><g fill="none" stroke-width="1.5"><path stroke="#1f77b4" marker-end="url(#arrow-licensing)" d="&#10;    M6.925836386323505,-55.006550586623334&#10;    A60.35293541731074,60.35293541731074 0 0,1 23.342663961362145,-113.08378008199038&#10;  "/><path stroke="#1f77b4" marker-end="url(#arrow-licensing)" d="&#10;    M6.925836386323505,-55.006550586623334&#10;    A81.95469925040086,81.95469925040086 0 0,1 -35.42304112730219,15.158578235032675&#10;  "/><path stroke="#ff7f0e" marker-end="url(#arrow-suit)" d="&#10;    M-89.39071187599278,98.54942578925093&#10;    A62.36347534363589,62.36347534363589 0 0,1 -31.091714310256254,76.40377294797013&#10;  "/><path stroke="#ff7f0e" marker-end="url(#arrow-suit)" d="&#10;    M19.735765968412267,16.084832062160398&#10;    A78.87843419505894,78.87843419505894 0 0,1 -31.091714310256254,76.40377294797013&#10;  "/><path stroke="#2ca02c" marker-end="url(#arrow-resolved)" d="&#10;    M16.948906748260576,122.29618367170845&#10;    A66.43805109817944,66.43805109817944 0 0,1 -31.091714310256254,76.40377294797013&#10;  "/><path stroke="#ff7f0e" marker-end="url(#arrow-suit)" d="&#10;    M-35.42304112730219,15.158578235032675&#10;    A61.39816175930418,61.39816175930418 0 0,1 -31.091714310256254,76.40377294797013&#10;  "/><path stroke="#ff7f0e" marker-end="url(#arrow-suit)" d="&#10;    M-138.31192359148443,57.95029059310367&#10;    A108.79661892417309,108.79661892417309 0 0,1 -31.091714310256254,76.40377294797013&#10;  "/><path stroke="#ff7f0e" marker-end="url(#arrow-suit)" d="&#10;    M6.925836386323505,-55.006550586623334&#10;    A62.328411993299945,62.328411993299945 0 0,1 -18.801587975037105,-111.77741087019666&#10;  "/><path stroke="#ff7f0e" marker-end="url(#arrow-suit)" d="&#10;    M6.925836386323505,-55.006550586623334&#10;    A52.97720789793299,52.97720789793299 0 0,1 54.90403063945351,-77.47157746997551&#10;  "/><path stroke="#ff7f0e" marker-end="url(#arrow-suit)" d="&#10;    M161.0998725236079,185.43876286348234&#10;    A46.725202739149,46.725202739149 0 0,1 123.94496151146286,213.7717323282977&#10;  "/><path stroke="#ff7f0e" marker-end="url(#arrow-suit)" d="&#10;    M-31.091714310256254,76.40377294797013&#10;    A61.39816175930418,61.39816175930418 0 0,1 -35.42304112730219,15.158578235032675&#10;  "/><path stroke="#ff7f0e" marker-end="url(#arrow-suit)" d="&#10;    M6.925836386323505,-55.006550586623334&#10;    A56.17293696636822,56.17293696636822 0 0,1 -43.974483172154095,-78.76694444431097&#10;  "/><path stroke="#2ca02c" marker-end="url(#arrow-resolved)" d="&#10;    M-89.39071187599278,98.54942578925093&#10;    A63.57338070597632,63.57338070597632 0 0,1 -138.31192359148443,57.95029059310367&#10;  "/><path stroke="#2ca02c" marker-end="url(#arrow-resolved)" d="&#10;    M-187.68033117713006,85.8102355633869&#10;    A56.68700204887927,56.68700204887927 0 0,1 -138.31192359148443,57.95029059310367&#10;  "/><path stroke="#ff7f0e" marker-end="url(#arrow-suit)" d="&#10;    M-173.5866316926775,15.631771758724271&#10;    A55.092304979553184,55.092304979553184 0 0,1 -138.31192359148443,57.95029059310367&#10;  "/><path stroke="#ff7f0e" marker-end="url(#arrow-suit)" d="&#10;    M-196.11952978732018,134.59301905831123&#10;    A49.507373579042714,49.507373579042714 0 0,1 -187.68033117713006,85.8102355633869&#10;  "/><path stroke="#2ca02c" marker-end="url(#arrow-resolved)" d="&#10;    M-138.31192359148443,57.95029059310367&#10;    A56.68700204887927,56.68700204887927 0 0,1 -187.68033117713006,85.8102355633869&#10;  "/><path stroke="#2ca02c" marker-end="url(#arrow-resolved)" d="&#10;    M-31.091714310256254,76.40377294797013&#10;    A66.43805109817944,66.43805109817944 0 0,1 16.948906748260576,122.29618367170845&#10;  "/><path stroke="#2ca02c" marker-end="url(#arrow-resolved)" d="&#10;    M67.79611093366839,121.50012315939067&#10;    A50.85343533933401,50.85343533933401 0 0,1 16.948906748260576,122.29618367170845&#10;  "/><path stroke="#ff7f0e" marker-end="url(#arrow-suit)" d="&#10;    M-31.091714310256254,76.40377294797013&#10;    A78.87843419505894,78.87843419505894 0 0,1 19.735765968412267,16.084832062160398&#10;  "/><path stroke="#ff7f0e" marker-end="url(#arrow-suit)" d="&#10;    M6.925836386323505,-55.006550586623334&#10;    A72.23627193324599,72.23627193324599 0 0,1 19.735765968412267,16.084832062160398&#10;  "/><path stroke="#ff7f0e" marker-end="url(#arrow-suit)" d="&#10;    M19.735765968412267,16.084832062160398&#10;    A72.23627193324599,72.23627193324599 0 0,1 6.925836386323505,-55.006550586623334&#10;  "/><path stroke="#ff7f0e" marker-end="url(#arrow-suit)" d="&#10;    M198.6269569958556,-127.74108859935143&#10;    A46.915819790448325,46.915819790448325 0 0,1 216.1809087157841,-84.23300974468076&#10;  "/><path stroke="#ff7f0e" marker-end="url(#arrow-suit)" d="&#10;    M226.94786497511515,-38.793678041737486&#10;    A46.697539685731336,46.697539685731336 0 0,1 216.1809087157841,-84.23300974468076&#10;  "/><path stroke="#2ca02c" marker-end="url(#arrow-resolved)" d="&#10;    M-138.31192359148443,57.95029059310367&#10;    A63.57338070597632,63.57338070597632 0 0,1 -89.39071187599278,98.54942578925093&#10;  "/><path stroke="#ff7f0e" marker-end="url(#arrow-suit)" d="&#10;    M-31.091714310256254,76.40377294797013&#10;    A62.36347534363589,62.36347534363589 0 0,1 -89.39071187599278,98.54942578925093&#10;  "/><path stroke="#ff7f0e" marker-end="url(#arrow-suit)" d="&#10;    M-138.31192359148443,57.95029059310367&#10;    A55.092304979553184,55.092304979553184 0 0,1 -173.5866316926775,15.631771758724271&#10;  "/><path stroke="#ff7f0e" marker-end="url(#arrow-suit)" d="&#10;    M16.948906748260576,122.29618367170845&#10;    A50.85343533933401,50.85343533933401 0 0,1 67.79611093366839,121.50012315939067&#10;  "/></g><g fill="currentColor" stroke-linecap="round" stroke-linejoin="round"><g transform="translate(6.925836386323505,-55.006550586623334)"><text x="8" y="0.31em" fill="none" stroke="white" stroke-width="3">Microsoft</text><circle stroke="white" stroke-width="1.5" r="4"/><text x="8" y="0.31em">Microsoft</text></g><g transform="translate(23.342663961362145,-113.08378008199038)"><text x="8" y="0.31em" fill="none" stroke="white" stroke-width="3">Amazon</text><circle stroke="white" stroke-width="1.5" r="4"/><text x="8" y="0.31em">Amazon</text></g><g transform="translate(-35.42304112730219,15.158578235032675)"><text x="8" y="0.31em" fill="none" stroke="white" stroke-width="3">HTC</text><circle stroke="white" stroke-width="1.5" r="4"/><text x="8" y="0.31em">HTC</text></g><g transform="translate(-89.39071187599278,98.54942578925093)"><text x="8" y="0.31em" fill="none" stroke="white" stroke-width="3">Samsung</text><circle stroke="white" stroke-width="1.5" r="4"/><text x="8" y="0.31em">Samsung</text></g><g transform="translate(-31.091714310256254,76.40377294797013)"><text x="8" y="0.31em" fill="none" stroke="white" stroke-width="3">Apple</text><circle stroke="white" stroke-width="1.5" r="4"/><text x="8" y="0.31em">Apple</text></g><g transform="translate(19.735765968412267,16.084832062160398)"><text x="8" y="0.31em" fill="none" stroke="white" stroke-width="3">Motorola</text><circle stroke="white" stroke-width="1.5" r="4"/><text x="8" y="0.31em">Motorola</text></g><g transform="translate(16.948906748260576,122.29618367170845)"><text x="8" y="0.31em" fill="none" stroke="white" stroke-width="3">Nokia</text><circle stroke="white" stroke-width="1.5" r="4"/><text x="8" y="0.31em">Nokia</text></g><g transform="translate(-138.31192359148443,57.95029059310367)"><text x="8" y="0.31em" fill="none" stroke="white" stroke-width="3">Kodak</text><circle stroke="white" stroke-width="1.5" r="4"/><text x="8" y="0.31em">Kodak</text></g><g transform="translate(-18.801587975037105,-111.77741087019666)"><text x="8" y="0.31em" fill="none" stroke="white" stroke-width="3">Barnes &amp; Noble</text><circle stroke="white" stroke-width="1.5" r="4"/><text x="8" y="0.31em">Barnes &amp; Noble</text></g><g transform="translate(54.90403063945351,-77.47157746997551)"><text x="8" y="0.31em" fill="none" stroke="white" stroke-width="3">Foxconn</text><circle stroke="white" stroke-width="1.5" r="4"/><text x="8" y="0.31em">Foxconn</text></g><g transform="translate(161.0998725236079,185.43876286348234)"><text x="8" y="0.31em" fill="none" stroke="white" stroke-width="3">Oracle</text><circle stroke="white" stroke-width="1.5" r="4"/><text x="8" y="0.31em">Oracle</text></g><g transform="translate(123.94496151146286,213.7717323282977)"><text x="8" y="0.31em" fill="none" stroke="white" stroke-width="3">Google</text><circle stroke="white" stroke-width="1.5" r="4"/><text x="8" y="0.31em">Google</text></g><g transform="translate(-43.974483172154095,-78.76694444431097)"><text x="8" y="0.31em" fill="none" stroke="white" stroke-width="3">Inventec</text><circle stroke="white" stroke-width="1.5" r="4"/><text x="8" y="0.31em">Inventec</text></g><g transform="translate(-187.68033117713006,85.8102355633869)"><text x="8" y="0.31em" fill="none" stroke="white" stroke-width="3">LG</text><circle stroke="white" stroke-width="1.5" r="4"/><text x="8" y="0.31em">LG</text></g><g transform="translate(-173.5866316926775,15.631771758724271)"><text x="8" y="0.31em" fill="none" stroke="white" stroke-width="3">RIM</text><circle stroke="white" stroke-width="1.5" r="4"/><text x="8" y="0.31em">RIM</text></g><g transform="translate(-196.11952978732018,134.59301905831123)"><text x="8" y="0.31em" fill="none" stroke="white" stroke-width="3">Sony</text><circle stroke="white" stroke-width="1.5" r="4"/><text x="8" y="0.31em">Sony</text></g><g transform="translate(67.79611093366839,121.50012315939067)"><text x="8" y="0.31em" fill="none" stroke="white" stroke-width="3">Qualcomm</text><circle stroke="white" stroke-width="1.5" r="4"/><text x="8" y="0.31em">Qualcomm</text></g><g transform="translate(198.6269569958556,-127.74108859935143)"><text x="8" y="0.31em" fill="none" stroke="white" stroke-width="3">Huawei</text><circle stroke="white" stroke-width="1.5" r="4"/><text x="8" y="0.31em">Huawei</text></g><g transform="translate(216.1809087157841,-84.23300974468076)"><text x="8" y="0.31em" fill="none" stroke="white" stroke-width="3">ZTE</text><circle stroke="white" stroke-width="1.5" r="4"/><text x="8" y="0.31em">ZTE</text></g><g transform="translate(226.94786497511515,-38.793678041737486)"><text x="8" y="0.31em" fill="none" stroke="white" stroke-width="3">Ericsson</text><circle stroke="white" stroke-width="1.5" r="4"/><text x="8" y="0.31em">Ericsson</text></g></g></svg>